HIERARCHY
ROOT Reference
{
  OFFSET 0 0 0
  CHANNELS 6 Xposition Yposition Zposition Zrotation Xrotation Yrotation
  JOINT Hips
  {
    OFFSET 251.394 724.17 483.536
    CHANNELS 3 Zrotation Xrotation Yrotation
    JOINT RightUpLeg
    {
      OFFSET -0.450515 -23.4426 -1.37224
      CHANNELS 3 Zrotation Xrotation Yrotation
      JOINT RightLeg
      {
        OFFSET 112.821 0.0872427 -0.321027
        CHANNELS 3 Zrotation Xrotation Yrotation
        JOINT RightFoot
        {
          OFFSET 105.718 0.000193788 0.0213165
          CHANNELS 3 Zrotation Xrotation Yrotation
          JOINT RightToeBase
          {
            OFFSET 37.638 -0.000116272 0.00224792
            CHANNELS 3 Zrotation Xrotation Yrotation
            JOINT RightToeEnd
            {
              OFFSET 21.2112 0.114605 -0.000138184
              CHANNELS 3 Zrotation Xrotation Yrotation
              End Site
              {
                OFFSET 0 0 0
              }
            }
          }
        }
      }
    }
    JOINT LeftUpLeg
    {
      OFFSET -0.449508 23.4315 -1.37054
      CHANNELS 3 Zrotation Xrotation Yrotation
      JOINT LeftLeg
      {
        OFFSET 112.821 -0.0485242 -0.372458
        CHANNELS 3 Zrotation Xrotation Yrotation
        JOINT LeftFoot
        {
          OFFSET 105.716 0.00496094 -0.0229443
          CHANNELS 3 Zrotation Xrotation Yrotation
          JOINT LeftToeBase
          {
            OFFSET 37.639 0 0.00158905
            CHANNELS 3 Zrotation Xrotation Yrotation
            JOINT LeftToeEnd
            {
              OFFSET 21.2113 -0.125031 -0.00017438
              CHANNELS 3 Zrotation Xrotation Yrotation
              End Site
              {
                OFFSET 0 0 0
              }
            }
          }
        }
      }
    }
    JOINT Spine
    {
      OFFSET -5.01225 0.000463591 -9.60395
      CHANNELS 3 Zrotation Xrotation Yrotation
      JOINT Spine1
      {
        OFFSET 26.0222 -0.000271301 -0.000155029
        CHANNELS 3 Zrotation Xrotation Yrotation
        JOINT Spine2
        {
          OFFSET 27.173 -0.000155029 -0.000310058
          CHANNELS 3 Zrotation Xrotation Yrotation
          JOINT Spine3
          {
            OFFSET 36.3953 -0.000232544 7.75146e-005
            CHANNELS 3 Zrotation Xrotation Yrotation
            JOINT Neck
            {
              OFFSET 36.4331 0 -3.00261
              CHANNELS 3 Zrotation Xrotation Yrotation
              JOINT Head
              {
                OFFSET 23.0407 -0.000232544 -0.000310058
                CHANNELS 3 Zrotation Xrotation Yrotation
                End Site
                {
                  OFFSET 0 0 0
                }
              }
            }
            JOINT LeftShoulder
            {
              OFFSET 20.1317 6.74168 -12.6061
              CHANNELS 3 Zrotation Xrotation Yrotation
              JOINT LeftArm
              {
                OFFSET 34.2172 -5.81359e-005 7.75146e-005
                CHANNELS 3 Zrotation Xrotation Yrotation
                JOINT LeftForeArm
                {
                  OFFSET 65.4129 -0.0821605 0.0585235
                  CHANNELS 3 Zrotation Xrotation Yrotation
                  JOINT LeftHand
                  {
                    OFFSET 67.3883 0.0359667 0.0112396
                    CHANNELS 3 Zrotation Xrotation Yrotation
                    JOINT LeftHandThumb1
                    {
                      OFFSET 8.78386 2.85353 -6.05362
                      CHANNELS 3 Zrotation Xrotation Yrotation
                      JOINT LeftHandThumb2
                      {
                        OFFSET 8.25498 -0.000116272 -0.000174407
                        CHANNELS 3 Zrotation Xrotation Yrotation
                        JOINT LeftHandThumb3
                        {
                          OFFSET 7.24822 0.000310058 5.81358e-005
                          CHANNELS 3 Zrotation Xrotation Yrotation
                          JOINT LeftHandThumb4
                          {
                            OFFSET 7.0004 -3.87568e-005 -0.000310057
                            CHANNELS 3 Zrotation Xrotation Yrotation
                            End Site
                            {
                              OFFSET 0 0 0
                            }
                          }
                        }
                      }
                    }
                    JOINT LeftHandIndex1
                    {
                      OFFSET 24.0991 -1.01537 -5.40558
                      CHANNELS 3 Zrotation Xrotation Yrotation
                      JOINT LeftHandIndex2
                      {
                        OFFSET 7.26759 -0.000290679 -0.000465086
                        CHANNELS 3 Zrotation Xrotation Yrotation
                        JOINT LeftHandIndex3
                        {
                          OFFSET 7.13628 -1.93787e-005 0.000232543
                          CHANNELS 3 Zrotation Xrotation Yrotation
                          JOINT LeftHandIndex4
                          {
                            OFFSET 5.46699 9.68932e-005 -0.000387571
                            CHANNELS 3 Zrotation Xrotation Yrotation
                            End Site
                            {
                              OFFSET 0 0 0
                            }
                          }
                        }
                      }
                    }
                    JOINT LeftHandMiddle1
                    {
                      OFFSET 24.4604 -2.52837 0.918567
                      CHANNELS 3 Zrotation Xrotation Yrotation
                      JOINT LeftHandMiddle2
                      {
                        OFFSET 7.41627 -5.81359e-005 0.000116271
                        CHANNELS 3 Zrotation Xrotation Yrotation
                        JOINT LeftHandMiddle3
                        {
                          OFFSET 8.76829 3.87573e-005 -7.75142e-005
                          CHANNELS 3 Zrotation Xrotation Yrotation
                          JOINT LeftHandMiddle4
                          {
                            OFFSET 6.07588 -0.00013565 -5.81356e-005
                            CHANNELS 3 Zrotation Xrotation Yrotation
                            End Site
                            {
                              OFFSET 0 0 0
                            }
                          }
                        }
                      }
                    }
                    JOINT LeftHandRing1
                    {
                      OFFSET 22.465 -1.97467 6.3466
                      CHANNELS 3 Zrotation Xrotation Yrotation
                      JOINT LeftHandRing2
                      {
                        OFFSET 7.36666 -0.000232544 0.000387571
                        CHANNELS 3 Zrotation Xrotation Yrotation
                        JOINT LeftHandRing3
                        {
                          OFFSET 8.07624 -0.000465087 -0.000203475
                          CHANNELS 3 Zrotation Xrotation Yrotation
                          JOINT LeftHandRing4
                          {
                            OFFSET 6.04433 0.00013565 3.87571e-005
                            CHANNELS 3 Zrotation Xrotation Yrotation
                            End Site
                            {
                              OFFSET 0 0 0
                            }
                          }
                        }
                      }
                    }
                    JOINT LeftHandPinky1
                    {
                      OFFSET 19.5278 0.352933 10.4295
                      CHANNELS 3 Zrotation Xrotation Yrotation
                      JOINT LeftHandPinky2
                      {
                        OFFSET 6.16525 5.8136e-005 -0.000251921
                        CHANNELS 3 Zrotation Xrotation Yrotation
                        JOINT LeftHandPinky3
                        {
                          OFFSET 6.14448 -0.000329434 -0.00510625
                          CHANNELS 3 Zrotation Xrotation Yrotation
                          JOINT LeftHandPinky4
                          {
                            OFFSET 4.98555 0.000116272 0.000116271
                            CHANNELS 3 Zrotation Xrotation Yrotation
                            End Site
                            {
                              OFFSET 0 0 0
                            }
                          }
                        }
                      }
                    }
                  }
                }
              }
            }
            JOINT RightShoulder
            {
              OFFSET 20.1309 -6.74152 -12.6063
              CHANNELS 3 Zrotation Xrotation Yrotation
              JOINT RightArm
              {
                OFFSET 34.2171 7.75146e-005 7.75146e-005
                CHANNELS 3 Zrotation Xrotation Yrotation
                JOINT RightForeArm
                {
                  OFFSET 65.4492 0.242543 -0.176501
                  CHANNELS 3 Zrotation Xrotation Yrotation
                  JOINT RightHand
                  {
                    OFFSET 67.3888 -0.0867388 0.0597442
                    CHANNELS 3 Zrotation Xrotation Yrotation
                    JOINT RightHandThumb1
                    {
                      OFFSET 8.78307 -2.85357 -6.05302
                      CHANNELS 3 Zrotation Xrotation Yrotation
                      JOINT RightHandThumb2
                      {
                        OFFSET 8.25493 -7.75145e-005 0
                        CHANNELS 3 Zrotation Xrotation Yrotation
                        JOINT RightHandThumb3
                        {
                          OFFSET 7.24797 -0.000174408 0.000155029
                          CHANNELS 3 Zrotation Xrotation Yrotation
                          JOINT RightHandThumb4
                          {
                            OFFSET 7.00062 0 0
                            CHANNELS 3 Zrotation Xrotation Yrotation
                            End Site
                            {
                              OFFSET 0 0 0
                            }
                          }
                        }
                      }
                    }
                    JOINT RightHandIndex1
                    {
                      OFFSET 24.0991 1.01525 -5.40578
                      CHANNELS 3 Zrotation Xrotation Yrotation
                      JOINT RightHandIndex2
                      {
                        OFFSET 7.26773 7.75144e-005 0.000232543
                        CHANNELS 3 Zrotation Xrotation Yrotation
                        JOINT RightHandIndex3
                        {
                          OFFSET 7.13572 -0.000310058 3.87571e-005
                          CHANNELS 3 Zrotation Xrotation Yrotation
                          JOINT RightHandIndex4
                          {
                            OFFSET 5.46717 0 3.87572e-005
                            CHANNELS 3 Zrotation Xrotation Yrotation
                            End Site
                            {
                              OFFSET 0 0 0
                            }
                          }
                        }
                      }
                    }
                    JOINT RightHandMiddle1
                    {
                      OFFSET 24.4603 2.52899 0.918547
                      CHANNELS 3 Zrotation Xrotation Yrotation
                      JOINT RightHandMiddle2
                      {
                        OFFSET 7.41641 -0.000116272 -0.000116272
                        CHANNELS 3 Zrotation Xrotation Yrotation
                        JOINT RightHandMiddle3
                        {
                          OFFSET 8.76765 -3.87577e-005 0.000232543
                          CHANNELS 3 Zrotation Xrotation Yrotation
                          JOINT RightHandMiddle4
                          {
                            OFFSET 6.07609 -0.000193787 -0.000116271
                            CHANNELS 3 Zrotation Xrotation Yrotation
                            End Site
                            {
                              OFFSET 0 0 0
                            }
                          }
                        }
                      }
                    }
                    JOINT RightHandRing1
                    {
                      OFFSET 22.465 1.97571 6.34696
                      CHANNELS 3 Zrotation Xrotation Yrotation
                      JOINT RightHandRing2
                      {
                        OFFSET 7.36684 0.000193786 0.000155029
                        CHANNELS 3 Zrotation Xrotation Yrotation
                        JOINT RightHandRing3
                        {
                          OFFSET 8.07614 -0.000271301 0
                          CHANNELS 3 Zrotation Xrotation Yrotation
                          JOINT RightHandRing4
                          {
                            OFFSET 6.04468 0.000232543 0
                            CHANNELS 3 Zrotation Xrotation Yrotation
                            End Site
                            {
                              OFFSET 0 0 0
                            }
                          }
                        }
                      }
                    }
                    JOINT RightHandPinky1
                    {
                      OFFSET 19.5277 -0.352346 10.4296
                      CHANNELS 3 Zrotation Xrotation Yrotation
                      JOINT RightHandPinky2
                      {
                        OFFSET 6.16508 0 0.000232543
                        CHANNELS 3 Zrotation Xrotation Yrotation
                        JOINT RightHandPinky3
                        {
                          OFFSET 6.14396 -0.000155048 -0.0048834
                          CHANNELS 3 Zrotation Xrotation Yrotation
                          JOINT RightHandPinky4
                          {
                            OFFSET 4.98577 -7.75146e-005 -7.75143e-005
                            CHANNELS 3 Zrotation Xrotation Yrotation
                            End Site
                            {
                              OFFSET 0 0 0
                            }
                          }
                        }
                      }
                    }
                  }
                }
              }
            }
          }
        }
      }
    }
  }
}
MOTION
Frames:	4
Frame Time:	0.0333333
0 0 0 -90 -7.01671e-015 -180 2.78506 2.75093 -112.441 -175.55 1.91841 -105.275 0.0164826 0.0594093 -19.8716 -0.870013 6.90446 46.8431 -0.569879 0.114432 56.7853 9.44635e-005 -6.4395e-005 -86.4974 176.676 12.1525 -103.507 0.184788 0.406419 -22.6238 3.29986 2.68776 48.1819 0.583711 -0.112758 57.7605 -6.56089e-006 2.7435e-005 -86.4975 1.13575e-005 -4.00502e-005 121.665 0.030785 -0.36022 -14.5349 -1.49266 -0.654233 -14.4864 0.894425 -2.28072 6.05231 0.371564 -1.3137 24.7691 -3.5448 2.1182 46.368 102.313 22.8569 -25.402 65.402 20.2335 13.6175 -9.73331 13.1109 34.8319 -3.65051 -12.8388 -4.07464 -158.644 -1.25065 151.962 0.000296147 -0.000126729 15.1881 9.85736e-005 -0.000173882 8.9528 0.000481526 -0.00127703 -0.000153674 36.0676 86.5084 -23.3845 -0.000243696 -0.000334827 8.82136 0.000856405 -0.000844927 4.95714 -0.000625705 -0.000539409 -2.32886 -1.69067 86.8814 29.5837 -3.1237e-006 -0.00030011 11.9805 0.000917147 -0.000661961 12.8066 -0.000388987 -0.000413712 -2.32827 -63.4314 87.7471 97.5947 -3.89849e-005 -0.000720662 16.0747 0.00141064 -0.000484974 16.9212 -0.000690824 -0.000763009 -2.32763 -63.1803 86.0906 97.0988 0.0012432 -0.00124769 18.4918 -8.8841e-005 -0.00011107 16.6768 0.000116985 -6.10588e-005 -2.32891 -105.102 -23.2636 -22.6399 -59.8192 -22.2049 22.3155 9.57488 -19.1615 40.7473 9.66752 4.91961 -0.240906 158.644 1.2506 154.969 -0.000201592 -5.58219e-005 18.1946 8.18789e-005 0.000138504 11.959 -7.62941e-005 4.57763e-005 -180 -36.0641 -86.5085 -17.7555 -6.14363e-005 -0.000146732 14.4454 0.000127065 0.000131916 10.5802 -9.65121e-005 -0.000121969 177.672 1.69336 -86.8811 35.21 1.90033e-005 -9.2489e-005 17.605 -6.27729e-005 0.000313591 18.4311 -4.94958e-005 -9.14771e-005 177.672 63.4323 -87.7466 103.218 1.70343e-005 -0.000165611 21.6994 -7.18688e-006 0.000308169 22.5462 -2.98977e-005 1.52462e-005 177.672 63.1797 -86.0904 102.721 -8.27952e-005 0.000441347 24.117 9.29497e-005 0.000109094 22.3015 -0.000119591 6.09847e-005 177.672 
0 0 0 -90 -7.01671e-015 -180 2.57509 2.43664 -112.362 -175.56 1.6944 -104.999 -0.0506388 -0.124017 -20.186 -0.851188 6.75273 46.9491 -0.54861 0.0998823 56.7747 9.45105e-005 -6.54065e-005 -86.4974 176.59 11.9298 -103.611 0.100569 0.208974 -22.413 3.33668 2.58342 48.0882 0.584057 -0.112813 57.7755 -6.76153e-006 2.83947e-005 -86.4975 0.0136568 -0.033944 121.72 0.392914 -0.491178 -14.5322 -1.59586 -0.755084 -14.5326 0.963476 -2.05536 5.86599 0.24553 -1.20449 24.8093 -3.66818 2.43642 46.4764 102.175 22.8223 -25.2929 64.1178 19.8982 14.9543 -9.89284 12.9809 35.5307 -4.18436 -13.0546 -3.96927 -158.644 -1.25065 151.962 0.000295925 -0.0001269 15.1881 9.72581e-005 -0.00017338 8.95304 0.000481525 -0.00127703 -0.000153674 36.7984 86.519 -24.3123 -0.000247766 -0.000331672 8.64779 0.000854128 -0.000847447 4.77148 -0.000625632 -0.000539007 -2.32177 -1.48491 86.9264 29.1923 0.002426 0.000430945 11.789 0.000912498 -0.000665131 12.621 -0.000387741 -0.000398341 -2.3226 -64.467 87.7686 98.4436 -4.03598e-005 -0.000720857 15.889 0.00140488 -0.000488645 16.7355 -0.000692386 -0.000758702 -2.32783 -63.7838 86.1115 97.5152 0.00123757 -0.00125157 18.3061 -9.92673e-005 -9.92604e-005 16.4911 0.000116214 -5.84259e-005 -2.32177 -105.166 -23.2428 -22.778 -59.5248 -21.2759 21.9784 9.51818 -17.8305 41.0408 9.79498 4.95665 -0.23406 158.644 1.25057 154.969 -0.000201642 -6.40024e-005 18.1946 8.1621e-005 0.000136173 11.959 -7.62941e-005 3.05176e-005 -180 -36.0642 -86.5085 -17.7556 -6.12911e-005 -0.000149857 14.4454 0.000127096 0.000126775 10.5802 -9.65121e-005 -0.000121969 177.672 1.6934 -86.8812 35.2101 2.00426e-005 -9.49476e-005 17.605 -6.24342e-005 0.000309642 18.4311 -4.94958e-005 -9.14771e-005 177.672 63.4323 -87.7466 103.218 1.71609e-005 -0.000169997 21.6994 -6.46001e-006 0.00030875 22.5462 -2.98977e-005 1.52462e-005 177.672 63.1798 -86.0904 102.721 -8.33498e-005 0.000438238 24.117 9.21349e-005 0.000105292 22.3015 -0.000119591 6.09847e-005 177.672 
0 0 0 -90 -7.01671e-015 -180 2.2997 2.15501 -112.269 -175.47 1.32918 -104.596 -0.133362 -0.340449 -20.6349 -0.882193 6.52709 47.083 -0.489835 0.0596152 56.7455 9.45785e-005 -6.67526e-005 -86.4974 176.493 11.6151 -103.658 -0.000928481 -0.0308887 -22.1881 3.35715 2.5064 47.9316 0.585019 -0.112959 57.817 -6.75169e-006 2.58535e-005 -86.4975 0.051671 -0.127553 121.877 1.18357 -0.817276 -14.4486 -2.0939 -1.05317 -14.5865 0.96177 -1.50259 5.42274 0.236177 -1.23457 24.8595 -3.83949 2.87731 46.6802 101.789 22.7237 -24.9867 62.9808 19.5991 16.11 -10.2964 12.3269 37.4291 -5.68403 -13.6667 -3.68093 -158.644 -1.25064 151.962 0.000295706 -0.000126766 15.1881 9.78008e-005 -0.000174311 8.95327 0.000481525 -0.00127945 -0.000153674 38.846 86.5436 -26.9045 -0.000250333 -0.000324615 8.16793 0.000844198 -0.000850761 4.25816 -0.000628121 -0.000537498 -2.31468 -0.85433 87.0499 28.0484 -5.70453e-006 -0.000309837 11.2815 0.000900413 -0.000670333 12.1076 -0.000384888 -0.000384951 -2.31694 -67.4133 87.8254 100.874 -4.84303e-005 -0.000717238 15.3757 0.00139601 -0.000501709 16.2222 -0.000693946 -0.000754414 -2.32803 -65.4759 86.1681 98.6897 0.00122678 -0.00127122 17.7928 -0.000106897 -0.000109576 15.9778 0.000115435 -6.19156e-005 -2.31464 -105.348 -23.1834 -23.1659 -58.9948 -20.2234 21.714 9.48702 -16.5041 42.2875 10.1622 5.07546 -0.213344 158.644 1.25054 154.968 -0.000201888 -7.89906e-005 18.1947 8.1705e-005 0.000133922 11.959 -7.62941e-005 -7.01671e-015 -180 -36.0642 -86.5085 -17.7555 -6.16908e-005 -0.000156319 14.4454 0.00012752 0.000118823 10.5802 -9.65121e-005 -0.000121969 177.672 1.69348 -86.8812 35.2102 1.21767e-005 -0.000100301 17.605 -5.79063e-005 0.000304447 18.4312 -4.94958e-005 -9.14771e-005 177.672 63.4325 -87.7466 103.218 1.69281e-005 -0.000173844 21.6994 -5.4005e-006 0.00030356 22.5462 -2.98977e-005 1.52462e-005 177.672 63.1799 -86.0904 102.721 -7.99026e-005 0.0004338 24.117 9.46003e-005 0.00010076 22.3015 -0.000119591 6.09847e-005 177.672 
0 0 0 -90 -7.01671e-015 -180 1.97688 1.89443 -112.17 -175.292 0.856827 -104.103 -0.23141 -0.58388 -21.1662 -0.930052 6.23765 47.222 -0.389914 -0.0091039 56.6958 9.46826e-005 -6.86655e-005 -86.4974 176.39 11.2319 -103.663 -0.114661 -0.303386 -21.9556 3.36416 2.44648 47.7267 0.586468 -0.113172 57.8797 -6.87451e-006 2.54234e-005 -86.4975 0.110102 -0.268562 122.119 2.31335 -1.2997 -14.2926 -2.91289 -1.51074 -14.6445 0.912445 -0.689939 4.76732 0.321308 -1.37136 24.9192 -4.05177 3.41881 46.9616 101.2 22.5681 -24.515 61.9802 19.3262 17.0968 -10.8238 11.193 40.2987 -7.99565 -14.6223 -3.25667 -158.644 -1.25061 151.962 0.00029561 -0.000129451 15.1881 9.65613e-005 -0.0001727 8.95351 0.000481527 -0.00128186 -0.000153674 41.9956 86.5671 -30.8765 -0.000258752 -0.000313423 7.44302 0.000827314 -0.000857354 3.48272 -0.000627306 -0.000538011 -2.30759 0.290509 87.2339 26.1285 -4.56147e-006 -0.000307219 10.506 0.000883399 -0.000679668 11.3322 -0.000385386 -0.000373256 -2.31127 -72.1029 87.9032 104.784 -5.75406e-005 -0.000711143 14.6002 0.00137315 -0.00052154 15.4468 -0.000692928 -0.000751058 -2.32824 -68.0983 86.2505 100.53 0.00120221 -0.00127545 17.0173 -0.000126991 -0.000112318 15.2024 0.000112177 -5.76793e-005 -2.3075 -105.631 -23.0891 -23.7641 -58.288 -19.0892 21.4989 9.44597 -15.1672 44.3183 10.7465 5.28752 -0.179165 158.644 1.25051 154.968 -0.000202061 -0.000114878 18.1946 8.21448e-005 0.000128225 11.959 -7.62941e-005 -6.10351e-005 -180 -36.0643 -86.5085 -17.7556 -6.21404e-005 -0.000167008 14.4454 0.000128101 0.000104182 10.5802 -9.7132e-005 -0.000137216 177.672 1.69334 -86.8812 35.21 8.458e-006 -0.000105357 17.605 -4.98192e-005 0.000291675 18.4311 -5.01157e-005 -0.000106723 177.672 63.4327 -87.7466 103.219 1.64266e-005 -0.000181208 21.6994 -4.29632e-006 0.000292764 22.5462 -2.98977e-005 1.52462e-005 177.672 63.1803 -86.0904 102.722 -7.87767e-005 0.000423746 24.1169 9.5154e-005 8.85183e-005 22.3015 -0.000120211 4.57385e-005 177.672 
